HIERARCHY
ROOT hip
{
  OFFSET 0 0 0
  CHANNELS 6 Xposition Yposition Zposition Zrotation Yrotation Xrotation
  JOINT abdomen
  {
    OFFSET 0 20.6881 -0.73152
    CHANNELS 3 Zrotation Xrotation Yrotation
    JOINT chest
    {
      OFFSET 0 11.7043 -0.48768
      CHANNELS 3 Zrotation Xrotation Yrotation
      JOINT neck
      {
        OFFSET 0 22.1894 -2.19456
        CHANNELS 3 Zrotation Xrotation Yrotation
        JOINT head
        {
          OFFSET -0.24384 7.07133 1.2192
          CHANNELS 3 Zrotation Xrotation Yrotation
          JOINT leftEye
          {
            OFFSET 4.14528 8.04674 8.04672
            CHANNELS 3 Zrotation Xrotation Yrotation
            End Site
            {
              OFFSET 1 0 0
            }
          }
          JOINT rightEye
          {
            OFFSET -3.6576 8.04674 8.04672
            CHANNELS 3 Zrotation Xrotation Yrotation
            End Site
            {
              OFFSET 1 0 0
            }
          }
        }
      }
      JOINT rCollar
      {
        OFFSET -2.68224 19.2634 -4.8768
        CHANNELS 3 Zrotation Xrotation Yrotation
        JOINT rShldr
        {
          OFFSET -8.77824 -1.95073 1.46304
          CHANNELS 3 Zrotation Xrotation Yrotation
          JOINT rForeArm
          {
            OFFSET -28.1742 -1.7115 0.48768
            CHANNELS 3 Zrotation Xrotation Yrotation
            JOINT rHand
            {
              OFFSET -22.5879 0.773209 7.07136
              CHANNELS 3 Zrotation Xrotation Yrotation
              JOINT rThumb1
              {
                OFFSET -1.2192 -0.487915 3.41376
                CHANNELS 3 Zrotation Xrotation Yrotation
                JOINT rThumb2
                {
                  OFFSET -3.37035 -0.52449 3.41376
                  CHANNELS 3 Zrotation Xrotation Yrotation
                  End Site
                  {
                    OFFSET -1.78271 -1.18214 1.43049
                  }
                }
              }
              JOINT rIndex1
              {
                OFFSET -7.75947 0.938293 5.60832
                CHANNELS 3 Zrotation Xrotation Yrotation
                JOINT rIndex2
                {
                  OFFSET -2.54057 -0.884171 1.56538
                  CHANNELS 3 Zrotation Xrotation Yrotation
                  End Site
                  {
                    OFFSET -1.62519 -0.234802 1.16502
                  }
                }
              }
              JOINT rMid1
              {
                OFFSET -8.24714 1.18213 3.41376
                CHANNELS 3 Zrotation Xrotation Yrotation
                JOINT rMid2
                {
                  OFFSET -3.10165 -0.590103 1.0647
                  CHANNELS 3 Zrotation Xrotation Yrotation
                  End Site
                  {
                    OFFSET -2.48547 -0.328903 0.83742
                  }
                }
              }
              JOINT rRing1
              {
                OFFSET -8.82822 0.546677 1.51678
                CHANNELS 3 Zrotation Xrotation Yrotation
                JOINT rRing2
                {
                  OFFSET -2.60934 -0.819778 -0.0198488
                  CHANNELS 3 Zrotation Xrotation Yrotation
                  End Site
                  {
                    OFFSET -2.33842 -0.294052 0.168128
                  }
                }
              }
              JOINT rPinky1
              {
                OFFSET -8.27202 -0.0477905 -0.4584
                CHANNELS 3 Zrotation Xrotation Yrotation
                JOINT rPinky2
                {
                  OFFSET -1.82734 -0.647385 -0.700984
                  CHANNELS 3 Zrotation Xrotation Yrotation
                  End Site
                  {
                    OFFSET -1.69225 -0.51767 -0.607171
                  }
                }
              }
            }
          }
        }
      }
      JOINT lCollar
      {
        OFFSET 2.68224 19.2634 -4.8768
        CHANNELS 3 Zrotation Xrotation Yrotation
        JOINT lShldr
        {
          OFFSET 8.77824 -1.95073 1.46304
          CHANNELS 3 Zrotation Xrotation Yrotation
          JOINT lForeArm
          {
            OFFSET 28.1742 -1.7115 0.48768
            CHANNELS 3 Zrotation Xrotation Yrotation
            JOINT lHand
            {
              OFFSET 22.5879 0.773209 7.07136
              CHANNELS 3 Zrotation Xrotation Yrotation
              JOINT lThumb1
              {
                OFFSET 1.2192 -0.487915 3.41376
                CHANNELS 3 Zrotation Xrotation Yrotation
                JOINT lThumb2
                {
                  OFFSET 3.37035 -0.52449 3.41376
                  CHANNELS 3 Zrotation Xrotation Yrotation
                  End Site
                  {
                    OFFSET 1.78271 -1.18214 1.43049
                  }
                }
              }
              JOINT lIndex1
              {
                OFFSET 7.75947 0.938293 5.60832
                CHANNELS 3 Zrotation Xrotation Yrotation
                JOINT lIndex2
                {
                  OFFSET 2.54057 -0.884171 1.56538
                  CHANNELS 3 Zrotation Xrotation Yrotation
                  End Site
                  {
                    OFFSET 1.62519 -0.234802 1.16502
                  }
                }
              }
              JOINT lMid1
              {
                OFFSET 8.24714 1.18213 3.41376
                CHANNELS 3 Zrotation Xrotation Yrotation
                JOINT lMid2
                {
                  OFFSET 3.10165 -0.590103 1.0647
                  CHANNELS 3 Zrotation Xrotation Yrotation
                  End Site
                  {
                    OFFSET 2.48547 -0.328903 0.83742
                  }
                }
              }
              JOINT lRing1
              {
                OFFSET 8.82822 0.546677 1.51678
                CHANNELS 3 Zrotation Xrotation Yrotation
                JOINT lRing2
                {
                  OFFSET 2.60934 -0.819778 -0.0198488
                  CHANNELS 3 Zrotation Xrotation Yrotation
                  End Site
                  {
                    OFFSET 2.33842 -0.294052 0.168128
                  }
                }
              }
              JOINT lPinky1
              {
                OFFSET 8.27202 -0.0477905 -0.4584
                CHANNELS 3 Zrotation Xrotation Yrotation
                JOINT lPinky2
                {
                  OFFSET 1.82734 -0.647385 -0.700984
                  CHANNELS 3 Zrotation Xrotation Yrotation
                  End Site
                  {
                    OFFSET 1.69225 -0.51767 -0.607171
                  }
                }
              }
            }
          }
        }
      }
    }
  }
  JOINT rButtock
  {
    OFFSET -8.77824 4.35084 1.2192
    CHANNELS 3 Zrotation Xrotation Yrotation
    JOINT rThigh
    {
      OFFSET 0 -1.70687 -2.19456
      CHANNELS 3 Zrotation Xrotation Yrotation
      JOINT rShin
      {
        OFFSET 0 -36.8199 0.73152
        CHANNELS 3 Zrotation Xrotation Yrotation
        JOINT rFoot
        {
          OFFSET 0.73152 -45.1104 -5.12064
          CHANNELS 3 Zrotation Xrotation Yrotation
          End Site
          {
            OFFSET -1.1221 -3.69964 12.103
          }
        }
      }
    }
  }
  JOINT lButtock
  {
    OFFSET 8.77824 4.35084 1.2192
    CHANNELS 3 Zrotation Xrotation Yrotation
    JOINT lThigh
    {
      OFFSET 0 -1.70687 -2.19456
      CHANNELS 3 Zrotation Xrotation Yrotation
      JOINT lShin
      {
        OFFSET 0 -36.8199 0.73152
        CHANNELS 3 Zrotation Xrotation Yrotation
        JOINT lFoot
        {
          OFFSET -0.73152 -45.1104 -5.12064
          CHANNELS 3 Zrotation Xrotation Yrotation
          End Site
          {
            OFFSET 1.1221 -3.69964 12.103
          }
        }
      }
    }
  }
}
MOTION
Frames:	7
Frame Time:	0.00833333
-8.24305 83.303 128.084 177.419 0.7851 -153.256 -8.96806 -20.3138 -3.00828 4.05431 13.8878 -0.76324 1.72047 11.5841 -3.07877 -0.601586 2.89536 -2.10542 -0.0 0.0 0.0 -0.0 0.0 0.0 9.65754e-15 -1.59425e-13 -4.89383e-14 84.6677 10.7673 -7.46419 -17.225 -9.87717 32.3034 -0.0142068 -3.39572 -0.477801 -3.17165e-10 -1.18041e-09 5.86041e-10 -5.46041e-10 -2.03923e-09 1.01401e-09 -3.17162e-10 -1.18042e-09 5.86034e-10 7.73091 5.47488 0.417314 -3.17164e-10 -1.18042e-09 5.86043e-10 2.90554 0.965183 0.102902 -3.17157e-10 -1.18042e-09 5.86038e-10 10.2786 0.731801 0.0259123 -3.17169e-10 -1.18041e-09 5.86045e-10 2.22167 -0.733487 -0.20892 9.64384e-15 -1.59425e-13 -4.92209e-14 -74.0857 22.9675 -1.04806 15.3808 -8.12431 -28.3761 0.000376274 0.244446 -0.0343595 -8.68949e-10 -1.22173e-09 -1.38005e-09 -1.50689e-09 -2.11246e-09 -2.38583e-09 -8.68953e-10 -1.22173e-09 -1.38005e-09 -7.73091 5.47488 -0.417314 -8.68946e-10 -1.22173e-09 -1.38005e-09 -2.90554 0.965183 -0.102902 -8.68943e-10 -1.22173e-09 -1.38005e-09 -10.2786 0.731801 -0.0259123 -8.68945e-10 -1.22173e-09 -1.38006e-09 -2.22167 -0.733487 0.20892 -2.03217e-16 0.0 -3.88251e-19 3.13743 -42.3348 13.9793 -0.0843645 23.57 0.52533 -3.84001 -17.0987 -9.42481 2.03217e-16 0.0 3.88251e-19 -7.55267 -31.6444 -9.9883 0.0256314 10.7635 -0.110355 0.272809 -3.24482 -4.14541
-8.2823 83.2901 128.056 177.413 0.739 -153.289 -9.06988 -20.4155 -3.09047 4.07242 14.0684 -0.7939 1.71961 11.5212 -3.09551 -0.598896 2.93273 -2.1482 -0.0 0.0 0.0 -0.0 0.0 0.0 9.72707e-15 -2.24479e-13 -4.47009e-14 84.7562 10.9049 -7.35345 -17.1099 -9.76082 32.0523 -0.0120845 -3.12306 -0.439359 -1.38509e-10 -1.54291e-09 9.59532e-10 -2.37724e-10 -2.66497e-09 1.6608e-09 -1.38505e-10 -1.54291e-09 9.59525e-10 7.73091 5.47488 0.417314 -1.38506e-10 -1.54291e-09 9.59532e-10 2.90554 0.965183 0.102902 -1.38499e-10 -1.54291e-09 9.59528e-10 10.2786 0.731801 0.0259123 -1.38511e-10 -1.54291e-09 9.59533e-10 2.22167 -0.733487 -0.20892 9.71174e-15 -2.24476e-13 -4.50562e-14 -73.9258 22.8558 -1.23741 15.3777 -8.12159 -28.3697 0.000285305 0.314351 -0.0441819 -6.49723e-10 -1.54166e-09 -1.84281e-09 -1.12933e-09 -2.66575e-09 -3.18705e-09 -6.49728e-10 -1.54166e-09 -1.84281e-09 -7.73091 5.47488 -0.417314 -6.49721e-10 -1.54166e-09 -1.84281e-09 -2.90554 0.965183 -0.102902 -6.49722e-10 -1.54166e-09 -1.84281e-09 -10.2786 0.731801 -0.0259123 -6.4972e-10 -1.54166e-09 -1.84282e-09 -2.22167 -0.733487 0.20892 -2.03217e-16 0.0 -3.88251e-19 3.15765 -42.3856 14.0175 -0.0881963 24.0407 0.541083 -3.94858 -17.309 -9.63826 2.03217e-16 0.0 3.88251e-19 -7.59399 -31.5756 -9.94042 0.0257953 10.7974 -0.111757 0.255964 -3.18931 -4.38313
-8.32478 83.2854 128.003 177.364 0.6433 -153.361 -9.13321 -20.501 -3.16142 4.08295 14.177 -0.832337 1.7342 11.4904 -3.11744 -0.645381 2.98106 -2.18767 -0.0 0.0 0.0 -0.0 0.0 0.0 1.41728e-14 -2.32182e-13 -3.75703e-14 84.8473 11.001 -7.30226 -16.9974 -9.64793 31.8079 -0.00973072 -2.81531 -0.395988 -6.64901e-11 -1.62969e-09 1.06164e-09 -1.1367e-10 -2.81481e-09 1.83784e-09 -6.64851e-11 -1.62969e-09 1.06163e-09 7.73091 5.47488 0.417314 -6.64865e-11 -1.62969e-09 1.06164e-09 2.90554 0.965183 0.102902 -6.64787e-11 -1.62969e-09 1.06163e-09 10.2786 0.731801 0.0259123 -6.64917e-11 -1.62968e-09 1.06164e-09 2.22167 -0.733487 -0.20892 1.4155e-14 -2.32178e-13 -3.79679e-14 -73.8123 22.6798 -1.37908 15.3613 -8.1071 -28.3355 0.000224139 0.427499 -0.0600821 -5.11944e-10 -1.59529e-09 -1.96102e-09 -8.91276e-10 -2.75855e-09 -3.39203e-09 -5.11951e-10 -1.59529e-09 -1.96102e-09 -7.73091 5.47488 -0.417314 -5.11943e-10 -1.59529e-09 -1.96102e-09 -2.90554 0.965183 -0.102902 -5.11948e-10 -1.59529e-09 -1.96102e-09 -10.2786 0.731801 -0.0259123 -5.11943e-10 -1.59529e-09 -1.96103e-09 -2.22167 -0.733487 0.20892 -2.03217e-16 0.0 -3.88251e-19 3.16286 -42.3593 14.0158 -0.09123 24.3657 0.551275 -4.01501 -17.4215 -9.77207 2.03217e-16 0.0 3.88251e-19 -7.62215 -31.5036 -9.89126 0.0258398 10.8113 -0.112562 0.240066 -3.15007 -4.59698
-8.37419 83.2813 127.946 177.282 0.513 -153.458 -9.15899 -20.5142 -3.21263 4.09592 14.1576 -0.8849 1.7743 11.5236 -3.14899 -0.770553 3.01187 -2.23122 -0.0 0.0 0.0 -0.0 0.0 0.0 2.74634e-14 -1.435e-13 -2.3589e-14 84.9406 11.0473 -7.32042 -16.8837 -9.53502 31.5611 -0.00705167 -2.44408 -0.343693 -1.92832e-10 -1.23764e-09 6.98772e-10 -3.32526e-10 -2.13814e-09 1.21014e-09 -1.92828e-10 -1.23764e-09 6.98766e-10 7.73091 5.47488 0.417314 -1.9283e-10 -1.23764e-09 6.98773e-10 2.90554 0.965183 0.102902 -1.92822e-10 -1.23764e-09 6.98769e-10 10.2786 0.731801 0.0259123 -1.92835e-10 -1.23764e-09 6.98773e-10 2.22167 -0.733487 -0.20892 2.74437e-14 -1.43495e-13 -2.3985e-14 -73.7601 22.3925 -1.47039 15.3186 -8.06941 -28.2465 0.000300511 0.626562 -0.0880585 -5.04743e-10 -1.19249e-09 -1.50189e-09 -8.76699e-10 -2.06201e-09 -2.59801e-09 -5.0475e-10 -1.19249e-09 -1.50189e-09 -7.73091 5.47488 -0.417314 -5.04742e-10 -1.19249e-09 -1.50189e-09 -2.90554 0.965183 -0.102902 -5.04748e-10 -1.19249e-09 -1.50189e-09 -10.2786 0.731801 -0.0259123 -5.04741e-10 -1.19249e-09 -1.5019e-09 -2.22167 -0.733487 0.20892 -2.03217e-16 0.0 -3.88251e-19 3.16809 -42.2445 14.0112 -0.093496 24.5485 0.555473 -4.0341 -17.4065 -9.83044 2.03217e-16 0.0 3.88251e-19 -7.61803 -31.4426 -9.81727 0.025767 10.8254 -0.113122 0.223993 -3.14201 -4.77695
-8.40888 83.2764 127.901 177.308 0.3932 -153.515 -9.15428 -20.4874 -3.25075 4.11371 14.0542 -0.951645 1.83435 11.6044 -3.18689 -0.955081 3.02663 -2.27665 -0.0 0.0 0.0 -0.0 0.0 0.0 4.76265e-14 1.38993e-15 -4.22728e-15 85.031 11.0521 -7.3875 -16.7686 -9.4217 31.3117 -0.00455153 -2.01242 -0.282929 -4.16929e-10 -5.7498e-10 5.95248e-11 -7.20411e-10 -9.94393e-10 1.04186e-10 -4.16925e-10 -5.7498e-10 5.95177e-11 7.73091 5.47488 0.417314 -4.16928e-10 -5.7498e-10 5.95269e-11 2.90554 0.965183 0.102902 -4.1692e-10 -5.74981e-10 5.9522e-11 10.2786 0.731801 0.0259123 -4.16932e-10 -5.74978e-10 5.95283e-11 2.22167 -0.733487 -0.20892 4.76038e-14 1.39308e-15 -4.59379e-15 -73.7536 22.0191 -1.52706 15.2557 -8.01391 -28.1159 0.000746777 0.913913 -0.128448 -5.48512e-10 -5.20359e-10 -7.0354e-10 -9.48891e-10 -8.99733e-10 -1.21704e-09 -5.48519e-10 -5.20362e-10 -7.03539e-10 -7.73091 5.47488 -0.417314 -5.48511e-10 -5.20361e-10 -7.03541e-10 -2.90554 0.965183 -0.102902 -5.48517e-10 -5.20361e-10 -7.03539e-10 -10.2786 0.731801 -0.0259123 -5.4851e-10 -5.2036e-10 -7.03544e-10 -2.22167 -0.733487 0.20892 -2.03217e-16 0.0 -3.88251e-19 3.16933 -42.0577 13.9953 -0.0948576 24.6149 0.554848 -4.01493 -17.2972 -9.82497 2.03217e-16 0.0 3.88251e-19 -7.5895 -31.3908 -9.73386 0.025663 10.8364 -0.113388 0.207142 -3.15132 -4.93956
-8.43117 83.268 127.86 177.391 0.286 -153.542 -9.11125 -20.5219 -3.28973 4.11144 13.9601 -1.0181 1.89604 11.6733 -3.22366 -1.147 3.08833 -2.309 -0.0 0.0 0.0 -0.0 0.0 0.0 6.60866e-14 1.44789e-13 1.27133e-14 85.1247 11.028 -7.49692 -16.6609 -9.31641 31.0799 -0.00278632 -1.58194 -0.222374 -6.07855e-10 5.74731e-11 -5.61977e-10 -1.05078e-09 9.71024e-11 -9.71144e-10 -6.07853e-10 5.74735e-11 -5.61985e-10 7.73091 5.47488 0.417314 -6.07856e-10 5.74722e-11 -5.61974e-10 2.90554 0.965183 0.102902 -6.07848e-10 5.74715e-11 -5.61979e-10 10.2786 0.731801 0.0259123 -6.0786e-10 5.74732e-11 -5.61971e-10 2.22167 -0.733487 -0.20892 6.60579e-14 1.44791e-13 1.23856e-14 -73.7702 21.6469 -1.54369 15.1968 -7.96203 -27.9944 0.00156843 1.19176 -0.167512 -5.92416e-10 1.33628e-10 8.88574e-11 -1.02147e-09 2.31104e-10 1.53698e-10 -5.92422e-10 1.33626e-10 8.88619e-11 -7.73091 5.47488 -0.417314 -5.92415e-10 1.33628e-10 8.88568e-11 -2.90554 0.965183 -0.102902 -5.9242e-10 1.33628e-10 8.88606e-11 -10.2786 0.731801 -0.0259123 -5.92413e-10 1.33628e-10 8.88564e-11 -2.22167 -0.733487 0.20892 -2.03217e-16 0.0 -3.88251e-19 3.137 -41.8122 13.8928 -0.0948381 24.5376 0.549224 -3.95979 -17.1363 -9.73652 2.03217e-16 0.0 3.88251e-19 -7.57369 -31.3177 -9.68249 0.0254549 10.8014 -0.112607 0.191737 -3.15486 -5.09498
-8.46007 83.2584 127.817 177.373 0.1178 -153.557 -9.02241 -20.7193 -3.34371 4.06472 13.9684 -1.0699 1.94088 11.6708 -3.2518 -1.29432 3.25993 -2.31328 -0.0 0.0 0.0 -0.0 0.0 0.0 7.42684e-14 2.28999e-13 1.94312e-14 85.2276 10.9874 -7.64209 -16.5701 -9.22784 30.8855 -0.00180867 -1.21426 -0.17068 -6.34688e-10 3.58906e-10 -8.71606e-10 -1.0971e-09 6.17028e-10 -1.50699e-09 -6.34685e-10 3.58907e-10 -8.71615e-10 7.73091 5.47488 0.417314 -6.34689e-10 3.58906e-10 -8.71602e-10 2.90554 0.965183 0.102902 -6.34681e-10 3.58905e-10 -8.71608e-10 10.2786 0.731801 0.0259123 -6.34694e-10 3.58906e-10 -8.71599e-10 2.22167 -0.733487 -0.20892 7.42286e-14 2.29001e-13 1.9133e-14 -73.7869 21.3634 -1.51496 15.1667 -7.93549 -27.9324 0.00227671 1.36231 -0.191497 -5.85619e-10 4.82004e-10 5.30119e-10 -1.00807e-09 8.33337e-10 9.17046e-10 -5.85625e-10 4.82002e-10 5.30125e-10 -7.73091 5.47488 -0.417314 -5.85617e-10 4.82004e-10 5.30119e-10 -2.90554 0.965183 -0.102902 -5.85623e-10 4.82004e-10 5.30123e-10 -10.2786 0.731801 -0.0259123 -5.85615e-10 4.82003e-10 5.30119e-10 -2.22167 -0.733487 0.20892 -2.03217e-16 0.0 -3.88251e-19 3.04366 -41.5202 13.6297 -0.0930504 24.2892 0.538471 -3.87146 -16.9663 -9.54609 2.03217e-16 0.0 3.88251e-19 -7.60758 -31.1929 -9.70458 0.0250776 10.6775 -0.110028 0.18026 -3.12952 -5.25333
